<?xml version="1.0" standalone="no"?>
<!DOCTYPE svg PUBLIC "-//W3C//DTD SVG 20010904//EN"
 "http://www.w3.org/TR/2001/REC-SVG-20010904/DTD/svg10.dtd">
<svg version="1.0" xmlns="http://www.w3.org/2000/svg"
 width="670.000000pt" height="373.000000pt" viewBox="0 0 670.000000 373.000000"
 preserveAspectRatio="xMidYMid meet">

<g transform="translate(0.000000,373.000000) scale(0.100000,-0.100000)"
fill="#000000" stroke="none">
<path d="M2010 3499 c-13 -6 -28 -15 -32 -22 -4 -7 -8 -629 -8 -1383 l0 -1371
23 -21 23 -22 1571 0 1570 0 27 21 26 20 0 1372 c0 755 -4 1377 -8 1383 -4 6
-17 16 -29 23 -28 15 -3125 15 -3163 0z m970 -261 c76 -37 128 -85 170 -154
34 -57 35 -60 35 -169 0 -99 -2 -114 -24 -150 -103 -168 -245 -234 -411 -190
-72 19 -121 50 -179 117 -60 68 -76 116 -76 228 1 75 5 105 21 140 32 69 94
132 165 167 82 40 90 42 174 40 53 -2 83 -9 125 -29z m1587 -848 c137 -272
254 -504 261 -515 43 -77 172 -351 172 -366 0 -19 -36 -19 -1395 -19 -1192 0
-1395 2 -1395 14 0 14 49 79 93 123 25 24 38 40 122 138 33 39 65 75 71 80 6
6 53 60 104 120 150 176 160 186 184 173 19 -9 162 -105 247 -166 18 -12 37
-21 43 -19 6 2 23 27 38 56 15 29 56 100 91 159 90 151 150 254 162 277 6 11
24 41 39 67 33 56 22 59 168 -48 136 -99 263 -184 277 -184 10 0 31 40 147
285 23 50 86 180 139 290 l97 200 43 -85 c23 -47 154 -308 292 -580z"/>
<path d="M1512 3027 l-22 -23 2 -1379 3 -1379 25 -13 c37 -19 3143 -19 3180 0
25 13 25 13 25 157 l0 145 -1440 5 c-792 3 -1441 6 -1441 8 -16 27 -19 239
-24 1272 l-5 1225 -141 3 c-136 2 -141 2 -162 -21z"/>
</g>
</svg>
